<?xml version="1.0" encoding="UTF-8" standalone="no"?>
<svg
   version="1.1"
   id="Layer_1"
   x="0px"
   y="0px"
   width="100%"
   viewBox="0 0 1644 1703"
   enable-background="new 0 0 1644 1703"
   xml:space="preserve"
   sodipodi:docname="logo-png_adobe_express_adobe_express.svg"
   inkscape:version="1.2.2 (732a01da63, 2022-12-09)"
   xmlns:inkscape="http://www.inkscape.org/namespaces/inkscape"
   xmlns:sodipodi="http://sodipodi.sourceforge.net/DTD/sodipodi-0.dtd"
   xmlns="http://www.w3.org/2000/svg"
   xmlns:svg="http://www.w3.org/2000/svg"><defs
   id="defs631" /><sodipodi:namedview
   id="namedview629"
   pagecolor="#ffffff"
   bordercolor="#000000"
   borderopacity="0.25"
   inkscape:showpageshadow="2"
   inkscape:pageopacity="0.0"
   inkscape:pagecheckerboard="0"
   inkscape:deskcolor="#d1d1d1"
   showgrid="false"
   inkscape:zoom="0.46271286"
   inkscape:cx="2304.8852"
   inkscape:cy="568.38706"
   inkscape:window-width="1920"
   inkscape:window-height="986"
   inkscape:window-x="-11"
   inkscape:window-y="-11"
   inkscape:window-maximized="1"
   inkscape:current-layer="Layer_1" />


<path
   fill="#000000"
   opacity="1.000000"
   stroke="none"
   d=" M5.500038,1.000000   C5.751263,3.814221 2.505111,4.270932 1.306170,6.289306   C1.047944,3.304983 0.040387,-0.234452 5.500038,1.000000  z"
   id="path536" />
<path
   fill="#D5D2CA"
   opacity="1.000000"
   stroke="none"
   d=" M1423.744873,1340.736328   C1408.298828,1360.165771 1391.871338,1378.292725 1374.565430,1395.515991   C1361.156128,1408.861328 1347.300049,1421.811157 1332.766602,1434.028564   C1314.568359,1449.326782 1296.006226,1464.106201 1276.665405,1477.926270   C1250.394165,1496.698730 1223.325317,1514.193726 1195.161621,1530.020142   C1165.225708,1546.842529 1134.290771,1561.507324 1102.332397,1574.028198   C1065.765137,1588.354736 1028.183472,1599.311157 989.914734,1608.068848   C965.504150,1613.655029 940.922668,1618.333618 916.147949,1621.783691   C898.105774,1624.296265 879.943420,1625.953857 861.733643,1627.266602   C838.958984,1628.908203 816.180847,1629.647949 793.431335,1628.757446   C770.425415,1627.857178 747.458862,1625.988403 724.531555,1623.320435   C683.122192,1618.501709 642.330566,1610.551270 601.919067,1600.661011   C570.916443,1593.073486 540.646057,1583.010010 511.003143,1571.056519   C458.913208,1550.051025 410.072418,1523.122314 364.091858,1490.972656   C340.533936,1474.500977 317.980072,1456.704834 295.767944,1438.448975   C270.784637,1417.915649 247.348816,1395.750854 225.044449,1372.399048   C205.169586,1351.590942 186.925354,1329.379517 170.462402,1305.749756   C145.992416,1270.627441 124.218391,1233.892700 104.364861,1195.973267   C87.910583,1164.546265 72.451172,1132.632446 60.491283,1099.256470   C53.115074,1078.671997 48.317371,1057.186646 42.945045,1035.941528   C34.853138,1003.941589 27.840443,971.704834 22.393448,939.165100   C19.743593,923.335205 18.210947,907.314575 16.813131,891.282410   C14.741421,867.521118 14.692494,843.750671 15.131360,819.977600   C15.446454,802.909241 17.160614,785.896057 18.799185,768.880127   C21.359175,742.295593 25.143587,715.900208 30.161236,689.709961   C39.738365,639.721008 52.106525,590.392883 72.198990,543.503113   C93.570183,493.629211 116.522942,444.438202 146.518127,398.963837   C159.063919,379.943726 173.394943,362.259430 188.327148,345.044067   C201.526489,329.826599 215.502563,315.362976 229.387802,300.786713   C239.499771,290.171509 249.754181,279.707001 260.212433,269.454987   C289.343536,240.898270 320.588867,214.858185 354.081451,191.529099   C391.978851,165.131866 431.670990,141.780518 473.372650,121.963425   C512.473145,103.382408 552.905090,88.305099 594.690918,76.772743   C624.466370,68.555092 654.595154,62.099304 685.063599,57.350166   C703.541138,54.470055 722.116394,52.098602 740.692505,49.782738   C773.324097,45.714596 806.050476,45.188351 838.779419,46.239178   C859.451538,46.902897 880.075867,49.237236 900.657166,51.795345   C942.856995,57.040489 984.202148,66.532616 1025.506226,76.185493   C1060.260132,84.307556 1093.375977,97.179482 1125.704590,112.254532   C1175.887939,135.655304 1223.498291,163.507339 1269.631348,194.021301   C1297.535889,212.478317 1324.079224,232.596466 1348.884766,255.114609   C1368.553101,272.969269 1385.621460,293.040649 1402.377808,313.505310   C1414.266479,328.024811 1426.642822,342.147186 1438.894409,356.366669   C1466.825195,388.783844 1494.113770,421.777405 1512.622559,460.700470   C1529.683838,496.578979 1544.957397,533.272766 1558.813354,570.549072   C1574.956543,613.979065 1584.982788,658.976807 1593.760132,704.292419   C1598.105835,726.729187 1601.647095,749.337830 1603.825073,772.098572   C1605.009766,784.479004 1605.426758,796.958435 1606.297852,809.362305   C1607.387207,824.875305 1606.241211,840.263550 1605.849487,855.683838   C1605.487793,869.917419 1603.764038,884.098694 1602.255005,898.278687   C1600.887451,911.129333 1599.537720,923.981934 1598.163452,936.832825   C1595.795044,958.980469 1591.180176,980.659607 1586.034424,1002.286682   C1578.304810,1034.773438 1569.455078,1066.939819 1558.895508,1098.610229   C1547.144165,1133.854614 1533.144775,1168.221436 1515.403442,1200.892090   C1490.935059,1245.950317 1463.603882,1289.223389 1432.361084,1329.949219   C1429.632568,1333.505981 1426.784180,1336.970703 1423.744873,1340.736328  z"
   id="path538" />
<path
   fill="#94938F"
   opacity="1.000000"
   stroke="none"
   d=" M1279.783203,1435.771973   C1259.322754,1452.651367 1237.869873,1467.523071 1215.564453,1481.161987   C1182.007324,1501.681030 1147.114624,1519.685669 1111.269653,1535.841187   C1067.169556,1555.717041 1021.614807,1571.191284 973.906555,1579.679688   C955.139038,1583.018921 936.188049,1585.340698 917.178040,1587.065552   C901.320068,1588.504395 885.487061,1590.219849 869.642578,1591.807861   C868.980408,1591.874268 868.313660,1591.902466 867.648254,1591.927612   C838.684509,1593.021240 809.694580,1593.512573 780.734314,1592.771851   C735.166809,1591.606445 690.125427,1585.981812 645.673706,1575.507935   C593.555176,1563.227661 543.188110,1546.031860 494.477478,1523.833740   C459.753387,1508.009644 426.418091,1489.598022 393.171783,1470.932861   C365.774994,1455.551758 340.423401,1437.407715 316.300140,1417.442505   C307.080505,1409.812012 298.122009,1401.844971 289.331146,1393.721191   C255.755096,1362.692871 225.706207,1328.480469 198.446152,1291.825806   C163.355850,1244.642212 133.235489,1194.541748 110.514053,1140.175171   C92.985939,1098.234985 78.275589,1055.344238 67.618774,1011.125916   C61.823334,987.078857 57.681156,962.732849 54.871281,938.142334   C52.513981,917.512573 50.875542,896.855103 49.763844,876.114319   C48.397869,850.629517 48.339653,825.129028 49.291687,799.700562   C51.207329,748.534424 56.946354,697.776489 70.027489,648.088196   C77.834183,618.434753 87.925514,589.581604 101.110954,561.876648   C115.351524,531.954651 130.003754,502.234436 145.509872,472.939758   C167.524643,431.348755 193.252716,392.232330 222.792252,355.584686   C241.830734,331.964966 262.139282,309.538239 284.012299,288.530151   C301.305756,271.920471 319.966766,256.923767 338.734192,242.030319   C348.230835,234.493973 357.544312,226.611053 366.143036,218.080872   C390.564178,193.854492 419.094940,175.964645 449.809235,160.890198   C487.636993,142.324509 525.765564,124.537086 565.825073,111.311737   C597.861633,100.735085 630.496948,92.299522 663.659790,85.991386   C687.971619,81.366859 712.423218,78.146400 737.180176,76.747253   C754.209534,75.784836 771.110413,72.716118 788.130127,71.360199   C800.219177,70.397095 812.407043,70.372009 824.546448,71.606522   C830.822021,72.244720 837.131348,72.574593 843.431091,72.948486   C866.795898,74.335175 890.041748,76.799980 913.269592,79.717484   C955.384827,85.007332 996.537903,94.648933 1037.314087,106.093559   C1064.098511,113.611130 1089.999023,123.623032 1115.427368,134.844269   C1160.614868,154.785049 1203.887329,178.211700 1244.320801,206.668640   C1270.442505,225.052917 1295.326416,245.058075 1319.959595,265.375854   C1333.071411,276.190613 1345.721436,287.526062 1357.287354,299.971802   C1384.480347,329.233765 1410.064209,359.826172 1433.268066,392.392212   C1459.132812,428.692566 1481.284912,467.134827 1500.628052,507.250977   C1522.163086,551.912842 1538.146240,598.510376 1550.043579,646.602295   C1556.303833,671.907898 1561.969727,697.325562 1565.672119,723.121155   C1567.414307,735.259155 1568.410767,747.516235 1569.108398,759.800598   C1571.423218,800.559448 1571.579834,841.351318 1570.823975,882.131287   C1570.381226,906.017578 1567.600098,929.776855 1564.225464,953.467957   C1558.043945,996.862061 1547.233032,1039.087524 1533.202148,1080.530518   C1520.804443,1117.149658 1505.840088,1152.708496 1487.934570,1186.984985   C1464.439575,1231.961792 1436.596802,1274.076294 1404.326904,1313.263184   C1389.612183,1331.131836 1374.088013,1348.236206 1357.950684,1364.838135   C1333.449707,1390.044556 1307.446411,1413.544434 1279.783203,1435.771973  z"
   id="path540" />
<path
   fill="#D6D3CB"
   opacity="1.000000"
   stroke="none"
   d=" M1413.437744,442.348785   C1412.356323,449.886292 1414.943970,456.263062 1418.752075,461.953430   C1452.103882,511.789673 1474.734375,566.567261 1492.832886,623.346558   C1503.125732,655.638000 1510.991699,688.555725 1515.182739,722.298157   C1517.617676,741.903137 1519.199341,761.577820 1521.223511,781.213318   C1524.149658,809.600098 1524.576172,838.025513 1523.846313,866.466370   C1523.280151,888.529785 1521.054443,910.499695 1518.281982,932.429443   C1514.257446,964.264709 1508.192017,995.668030 1500.012085,1026.665649   C1490.152588,1064.027710 1477.014526,1100.269897 1462.075195,1135.875977   C1448.773438,1167.578979 1433.137695,1198.043457 1413.384155,1226.254395   C1398.491455,1247.523682 1381.820679,1267.412354 1365.284180,1287.405151   C1346.280029,1310.381714 1326.292725,1332.458618 1305.000854,1353.317017   C1284.901245,1373.007568 1263.693237,1391.451294 1240.936523,1408.056763   C1240.802368,1408.154785 1240.649536,1408.227417 1240.516113,1408.326416   C1233.598511,1413.458618 1233.732910,1415.200073 1241.348022,1419.126587   C1242.236450,1419.584717 1243.138306,1420.017944 1244.013428,1420.500000   C1252.108276,1424.960327 1253.098755,1431.107422 1246.748047,1437.853638   C1236.852905,1448.364746 1225.216309,1456.750732 1213.001221,1464.211426   C1186.724976,1480.260986 1160.259766,1496.046753 1132.580078,1509.583374   C1096.025513,1527.460693 1057.751099,1540.842041 1018.693359,1552.119873   C997.943848,1558.111328 977.173401,1563.958740 955.976990,1568.175049   C937.252136,1571.899780 918.421509,1574.744751 899.351990,1576.164673   C884.246887,1577.289429 869.157349,1578.172363 854.010620,1577.932739   C840.080627,1577.712280 826.744263,1575.853027 814.368225,1568.340210   C801.051025,1560.255737 785.791016,1557.547485 770.520203,1556.153564   C747.856018,1554.085205 725.396851,1550.691528 703.018250,1546.757080   C675.562683,1541.929810 648.225708,1536.509888 621.268677,1529.269531   C591.006714,1521.141479 561.671936,1510.446655 532.989868,1497.935547   C489.842621,1479.114624 449.033203,1456.007202 409.927032,1429.881226   C381.397247,1410.821045 354.497650,1389.677490 328.957581,1366.718872   C287.422455,1329.381714 251.156906,1287.483765 218.925018,1241.975586   C195.400940,1208.761963 174.542206,1173.970459 156.724777,1137.372314   C143.310379,1109.818359 131.827332,1081.476318 121.916252,1052.472046   C113.797165,1028.711914 106.086433,1004.763550 96.708954,981.497437   C89.117531,962.662659 80.934288,944.145508 76.612648,924.203186   C72.355774,904.559692 69.302887,884.770630 67.834328,864.687378   C66.302528,843.739197 66.539146,822.789490 67.200447,801.869202   C67.766106,783.973999 69.687599,766.130127 71.750305,748.308960   C74.728317,722.579529 78.589722,697.022888 83.850548,671.664246   C92.178726,631.519958 104.232338,592.531982 119.744560,554.591187   C140.287735,504.345367 165.244980,456.479553 196.434982,411.964111   C212.200470,389.463043 229.549927,368.238342 247.695953,347.615021   C264.002045,329.082764 281.137451,311.347595 299.196014,294.586700   C335.759766,260.650513 374.922150,230.123459 419.031921,206.360138   C444.573975,192.599838 471.716522,183.572662 500.125702,177.974136   C515.709595,174.903061 530.169678,168.294724 544.804688,162.412048   C573.142212,151.021561 602.807068,144.305115 632.322144,137.089920   C651.660278,132.362564 671.206055,128.519882 690.904968,125.545273   C707.148682,123.092407 723.471497,121.389114 739.827515,119.818047   C751.615601,118.685745 763.492004,118.301460 775.174438,118.530716   C791.610657,118.853264 808.108887,117.997665 824.540222,119.721458   C832.626404,120.569756 840.807983,120.243446 848.953308,120.809799   C865.036072,121.928040 881.191711,122.004013 897.272644,123.141266   C927.315063,125.265877 956.859192,130.539108 985.919067,138.462631   C1021.133606,148.064301 1055.119995,161.053131 1088.512451,175.688141   C1106.958740,183.772629 1125.435791,191.792404 1143.297119,201.124115   C1163.393799,211.623749 1181.906250,224.717560 1201.149292,236.616776   C1208.566284,241.203201 1215.168335,247.536011 1224.426270,248.599365   C1225.413208,248.712708 1226.406372,248.770554 1227.818604,248.802887   C1230.405151,247.888458 1231.657593,249.576004 1233.076538,250.582352   C1251.550781,263.685303 1269.120239,277.907135 1286.174438,292.817993   C1301.601807,306.306458 1316.183228,320.650604 1330.447388,335.315674   C1360.928711,366.653625 1388.193726,400.586212 1411.728271,437.468872   C1412.620605,438.867462 1413.635132,440.223175 1413.437744,442.348785  z"
   id="path542" />
<path
   fill="#111111"
   opacity="1.000000"
   stroke="none"
   d=" M1413.621094,442.802612   C1402.239136,423.655334 1389.357300,405.866058 1375.650757,388.700317   C1334.491821,337.153961 1287.663330,291.459930 1234.211914,252.675110   C1232.463135,251.406174 1230.656860,250.216583 1228.558838,248.870819   C1212.036255,234.828812 1194.335205,222.989334 1176.264526,211.699936   C1147.252930,193.575317 1116.716309,178.437744 1084.830566,166.081955   C1071.541992,160.932587 1059.196655,154.181488 1047.537476,146.071808   C1044.754028,144.135681 1041.493042,142.170639 1043.348145,138.146042   C1045.121216,134.299377 1048.906860,135.752960 1051.815308,136.263290   C1070.403809,139.524994 1088.230591,145.385010 1105.720947,152.383514   C1209.510498,193.913452 1296.693481,258.822693 1370.675659,341.859650   C1453.509888,434.831940 1506.457520,543.294983 1534.569458,664.147705   C1543.113037,700.876526 1547.135864,738.283508 1547.273438,776.041626   C1547.315308,787.529053 1547.773560,799.079468 1546.768433,810.489014   C1545.628174,823.434875 1545.998291,836.334167 1545.856812,849.259155   C1545.843262,850.507263 1546.808228,852.796753 1544.389771,852.711731   C1542.124146,852.632019 1542.915161,850.372620 1543.033691,849.130920   C1545.039673,828.106140 1539.600708,807.842407 1536.926147,787.286621   C1532.459595,752.959412 1526.619995,718.900879 1519.057983,685.105591   C1500.600464,602.616943 1468.902588,525.664124 1423.551025,454.331207   C1420.851562,450.085480 1417.776978,446.187286 1413.621094,442.802612  z"
   id="path544" />
<path
   fill="#0C0C0C"
   opacity="1.000000"
   stroke="none"
   d=" M1113.703369,331.774231   C1114.364136,332.697968 1114.862061,333.257324 1115.583008,333.992706   C1116.610718,334.769775 1117.643555,334.971771 1118.426147,335.582336   C1137.261353,350.279205 1158.447021,361.780365 1176.163696,377.989777   C1181.464355,382.839600 1188.199097,385.615143 1193.874023,390.522034   C1195.212891,391.788544 1196.256958,392.857056 1197.411499,394.228577   C1201.614380,397.757172 1205.020264,401.703339 1208.553101,405.472900   C1214.467285,411.783203 1221.322754,416.831879 1228.650269,421.883484   C1256.960693,450.501862 1280.800659,482.318634 1304.262451,514.445618   C1305.141113,515.648743 1306.154419,516.753357 1307.429199,517.983521   C1311.563843,522.083618 1313.951904,527.058899 1316.712402,531.750244   C1332.915527,559.284851 1346.891235,587.936218 1359.054443,617.466431   C1361.196167,622.666077 1363.576904,627.815613 1364.767700,633.753723   C1363.926392,637.681091 1364.577637,641.070190 1365.694946,644.448608   C1378.025146,681.729370 1386.971558,719.801147 1391.955078,758.758362   C1394.023804,774.930481 1395.566040,791.159241 1396.500977,807.459900   C1396.968750,815.613892 1397.118896,823.751648 1397.360352,831.901917   C1398.098633,856.821533 1395.520508,881.481812 1391.288940,905.960144   C1385.440918,939.789429 1378.849487,973.491272 1369.447754,1006.542175   C1359.057739,1043.066895 1344.126831,1077.741821 1326.052368,1111.124878   C1307.591675,1145.221313 1286.223022,1177.374023 1262.082764,1207.669189   C1250.667969,1221.994507 1238.394775,1235.583374 1225.706543,1248.839111   C1197.250977,1278.567749 1165.924194,1304.827637 1131.887817,1327.846069   C1115.477661,1338.944336 1098.958862,1349.966309 1080.566284,1357.723389   C1075.410034,1359.897949 1070.969360,1363.071045 1067.544922,1368.116455   C1066.551025,1368.818481 1065.780640,1369.050537 1064.597412,1369.312256   C1050.476318,1372.964111 1037.232422,1378.020264 1023.899475,1382.761230   C975.104309,1400.111816 925.383728,1413.821533 874.013550,1420.969360   C860.843201,1422.801880 847.594604,1424.328247 834.242004,1424.370117   C829.748230,1424.384277 825.334412,1425.351074 820.809204,1425.409180   C799.287842,1425.685303 777.924561,1423.736694 756.580200,1421.329712   C731.421265,1418.492798 706.225281,1415.855347 681.471985,1410.331177   C644.137634,1401.999512 607.789368,1390.539429 572.849243,1374.886475   C523.280701,1352.680542 477.889404,1323.642944 435.714508,1289.589111   C412.615967,1270.938232 391.712280,1249.945435 372.030151,1227.672485   C348.119049,1200.613892 326.810120,1171.704834 308.247253,1140.774780   C288.638947,1108.103027 272.718567,1073.696411 259.967804,1037.771240   C244.738007,994.861389 234.869598,950.766968 229.505005,905.599670   C227.029282,884.755493 225.927048,863.871216 225.513123,842.869812   C224.315475,782.104126 234.691483,723.210205 252.591400,665.409485   C272.849365,599.994324 303.430450,539.842957 344.712036,485.195953   C358.070831,467.512085 372.672455,450.879456 387.769928,434.622437   C412.125366,408.396484 438.972626,385.083649 467.674927,363.838776   C511.217224,331.609741 558.607483,306.445374 609.255981,287.360168   C653.167053,270.813751 698.684509,261.070679 745.181580,255.552551   C767.321411,252.925049 789.459656,249.950775 811.779968,249.785004   C824.904907,249.687531 838.014832,251.245773 851.070251,252.752823   C872.567261,255.234314 894.145813,257.102722 915.497498,260.720856   C966.060913,269.289124 1014.494202,284.698334 1061.114258,306.015350   C1076.868042,313.218781 1092.351807,321.006073 1108.304810,327.777161   C1110.273560,328.612762 1112.395142,329.338104 1113.703369,331.774231  z"
   id="path546" />
<path
   fill="#8C8B88"
   opacity="1.000000"
   stroke="none"
   d=" M1113.932129,331.761902   C1051.883301,301.699951 988.868469,274.074371 920.016846,262.980042   C883.033691,257.020844 845.883179,251.891129 808.376770,251.348679   C786.070618,251.026047 763.883118,254.440552 741.759094,257.220428   C707.053467,261.581177 672.739563,268.110138 639.295166,278.548737   C570.200928,300.114166 507.158051,333.258087 450.671143,378.544434   C366.971405,445.647705 304.987762,528.837585 266.479889,629.183167   C250.330536,671.265930 238.826340,714.624573 232.231720,759.219666   C226.017990,801.239014 225.061081,843.415100 228.783264,885.758728   C234.347809,949.060669 248.675064,1010.187927 273.315033,1068.804077   C299.725494,1131.632202 336.471680,1187.766113 382.898071,1237.647339   C442.075378,1301.228394 512.317078,1348.809692 592.502197,1381.574951   C637.496704,1399.960449 684.297302,1412.059814 732.805237,1417.225220   C761.279724,1420.257324 789.648254,1424.393555 818.387207,1423.879395   C862.739929,1423.085938 906.076294,1415.548462 948.944153,1404.559937   C983.164124,1395.788208 1016.367493,1383.934204 1049.714233,1372.468018   C1054.327271,1370.881958 1058.824219,1368.512695 1064.094482,1369.072754   C1063.722656,1372.576782 1061.038208,1373.605713 1058.781250,1374.864624   C1042.746582,1383.807861 1026.115723,1391.424194 1008.752991,1397.463745   C961.038757,1414.060913 912.022827,1424.919434 861.933228,1431.161621   C840.377991,1433.847900 818.730774,1433.357422 797.088074,1433.473389   C768.875183,1433.624390 740.970947,1430.072998 713.011536,1427.018066   C696.023682,1425.161987 679.679382,1420.565186 663.308411,1416.026489   C652.703979,1413.086548 642.065125,1410.356445 631.073792,1409.284424   C630.238464,1409.203125 629.445435,1408.949219 628.430908,1408.194214   C619.951965,1400.723145 610.037109,1396.806396 600.038696,1393.162842   C539.149780,1370.975342 483.292511,1339.736572 432.917542,1299.039062   C376.182709,1253.203613 329.130859,1198.810547 292.053040,1135.924805   C260.967590,1083.202515 239.291290,1026.704956 225.378326,967.213379   C219.518295,942.156006 215.519745,916.755981 212.824432,891.124634   C210.260315,866.740967 209.276047,842.322510 210.257431,817.877380   C211.223740,793.807983 214.686996,769.978943 218.981644,746.265076   C223.567032,720.945740 228.070465,695.624817 234.871170,670.771362   C242.441071,643.106750 252.823227,616.475403 264.418427,590.307251   C278.338898,558.891602 294.754913,528.813599 313.959351,500.299927   C328.006500,479.443542 343.312592,459.536865 359.933655,440.661133   C370.939117,428.162750 382.257904,415.946075 394.277130,404.411316   C432.878082,367.366272 475.063263,335.141052 522.073914,309.381500   C564.451538,286.160675 608.923340,268.269104 655.849976,256.651917   C681.667114,250.260605 707.817261,245.942627 734.382263,243.834534   C766.482727,241.287186 798.611023,241.959473 830.720520,242.338745   C850.478943,242.572128 870.278931,243.301590 889.988464,245.153473   C923.898071,248.339615 956.734192,256.125183 988.880127,267.389069   C1020.100525,278.328613 1049.656738,292.727570 1078.731323,308.299591   C1087.828857,313.172211 1097.186523,317.557251 1106.386108,322.242035   C1110.189819,324.179047 1113.477905,326.660065 1113.932129,331.761902  z"
   id="path548" />
<path
   fill="#F7F7F7"
   opacity="1.000000"
   stroke="none"
   d=" M627.695679,1407.895508   C642.459229,1408.093262 656.067261,1412.168701 669.542358,1416.244385   C691.486023,1422.881348 713.989990,1425.653809 736.638062,1428.201050   C768.459717,1431.780029 800.345215,1433.073242 832.305908,1431.897827   C863.946655,1430.734375 895.101318,1425.551025 926.007263,1418.941650   C962.140930,1411.213989 997.661133,1401.352661 1031.741089,1386.853638   C1042.919434,1382.098022 1053.747192,1376.586914 1064.102539,1369.707031   C1064.824097,1368.944946 1065.399170,1368.417114 1066.322998,1367.703003   C1108.517944,1351.064087 1145.085205,1325.992920 1179.719604,1297.876343   C1197.048340,1283.808838 1213.469849,1268.671143 1228.962402,1252.596069   C1265.396606,1214.792114 1297.630737,1173.730469 1323.812622,1128.125122   C1340.622803,1098.844482 1352.954102,1067.518433 1364.731079,1035.976685   C1376.408447,1004.701782 1385.931519,972.815063 1391.759766,939.891785   C1396.056763,915.619019 1399.215332,891.232544 1400.870728,866.603333   C1402.080322,848.608887 1402.098511,830.615967 1401.438965,812.687500   C1400.601196,789.913574 1397.557129,767.268738 1393.621460,744.787903   C1389.427734,720.833252 1385.326050,696.856750 1378.724731,673.406006   C1375.693481,662.637817 1371.811157,652.192017 1366.662109,642.234070   C1365.448608,639.887390 1363.941406,637.606506 1364.017578,634.392639   C1349.682617,595.474426 1331.636230,558.755493 1310.350220,523.609192   C1309.416626,522.067688 1308.692139,520.399475 1307.811890,518.426697   C1311.042603,517.547119 1313.078857,514.846375 1315.837280,513.368408   C1322.239624,509.938080 1324.913086,509.916626 1329.835815,515.374939   C1337.574463,523.955566 1342.886353,534.203735 1348.533447,544.169678   C1366.560425,575.983215 1380.677246,609.514526 1391.589478,644.374756   C1401.207886,675.101624 1408.852173,706.318054 1414.110474,738.118958   C1417.928833,761.211853 1420.175537,784.401062 1421.267456,807.792053   C1421.850220,820.277039 1422.247192,832.754883 1421.807861,845.188293   C1421.188110,862.732849 1420.025879,880.258118 1418.241211,897.766296   C1414.738037,932.134399 1408.660156,965.992371 1400.015869,999.388184   C1391.548340,1032.101807 1380.307373,1063.850830 1366.262573,1094.633179   C1352.545044,1124.698242 1335.873901,1153.034424 1317.337524,1180.306641   C1303.419312,1200.784424 1288.234131,1220.293945 1271.781372,1238.826050   C1261.614136,1250.278076 1251.318848,1261.602905 1240.231812,1272.160034   C1222.181274,1289.348022 1203.173462,1305.440308 1183.484619,1320.722656   C1159.688354,1339.193237 1134.735107,1355.965820 1108.434692,1370.638306   C1088.817627,1381.582397 1068.430542,1390.953857 1047.576294,1399.379395   C1018.247375,1411.228882 988.237732,1420.848877 957.513000,1428.260864   C936.252625,1433.389648 914.770691,1437.303345 893.065430,1440.143799   C875.304016,1442.468140 857.516113,1444.017944 839.644897,1445.221558   C820.824219,1446.488892 801.987061,1446.631714 783.254578,1445.744507   C732.884644,1443.359009 683.404541,1435.333130 635.500671,1418.987793   C630.468323,1417.270752 625.453430,1415.496216 620.480408,1413.616089   C619.194214,1413.129761 617.217407,1412.876343 617.436707,1410.877930   C617.629028,1409.124146 619.395386,1408.577515 620.787720,1408.326416   C622.896667,1407.946289 625.089722,1408.031982 627.695679,1407.895508  z"
   id="path550" />
<path
   fill="#FBFBFB"
   opacity="1.000000"
   stroke="none"
   d=" M220.219574,460.219208   C194.028442,500.968689 172.923950,543.837402 155.841843,588.772400   C143.544144,621.121887 133.394180,654.089661 125.626740,687.790710   C120.453766,710.234924 116.478600,732.890686 113.854286,755.799927   C111.908653,772.784607 110.699890,789.784546 109.800995,806.857178   C108.231720,836.662231 108.598198,866.475220 109.283257,896.246460   C109.831421,920.068420 113.402550,943.737427 117.546173,967.255615   C120.790848,985.671692 125.440514,1003.881897 126.016479,1022.707581   C126.049835,1023.797913 126.020798,1024.890259 126.020798,1027.488525   C121.489380,1019.370239 119.322166,1011.905212 116.846100,1004.624634   C108.599022,980.374939 103.282196,955.455383 99.865952,930.067200   C96.989830,908.693115 95.162773,887.263245 93.816338,865.742493   C92.285027,841.266541 92.316833,816.763855 93.311958,792.357300   C94.674767,758.932800 98.837189,725.738708 104.676468,692.708801   C113.196075,644.517639 127.764297,598.385742 147.036758,553.464600   C163.954086,514.032898 183.858810,476.326965 207.886154,440.845215   C224.555084,416.229828 242.284805,392.382599 261.592499,369.704102   C277.805573,350.660492 294.978577,332.539032 313.225098,315.521759   C352.447235,278.941925 394.344543,245.754272 441.057312,219.088104   C467.215179,204.155777 494.088379,190.578949 521.942566,179.035004   C530.608276,175.443542 539.610413,173.567184 549.859131,174.128342   C545.729858,178.349808 540.897949,180.167526 536.578003,182.631287   C511.592316,196.881271 486.369049,210.711426 461.708160,225.533524   C432.468323,243.107758 404.428070,262.393524 377.781494,283.699554   C364.673065,294.180786 352.102203,305.267517 339.689392,316.570557   C329.579071,325.776978 319.905914,335.400909 310.422455,345.207062   C291.352661,364.925720 273.720764,385.894165 257.089752,407.719299   C244.188065,424.650391 231.995773,442.063965 220.219574,460.219208  z"
   id="path552" />
<path
   fill="#8C8B88"
   opacity="1.000000"
   stroke="none"
   d=" M1194.185059,390.369507   C1186.400146,387.505127 1179.567993,382.728699 1173.390381,377.189209   C1158.307373,363.664185 1140.771362,353.576355 1124.533081,341.679321   C1121.586426,339.520447 1118.820068,337.115601 1115.888184,334.496552   C1119.513306,332.663239 1123.281494,333.219147 1126.283813,335.350372   C1146.727905,349.862396 1168.635254,362.432281 1186.578125,380.286011   C1189.501953,383.195343 1192.413452,386.186188 1194.185059,390.369507  z"
   id="path554" />
<path
   fill="#8C8B88"
   opacity="1.000000"
   stroke="none"
   d=" M1228.897095,421.816528   C1219.825928,418.581879 1213.127686,411.944611 1206.617065,405.091492   C1203.544434,401.857239 1200.626709,398.475739 1197.580444,394.846252   C1204.862183,394.578583 1210.124268,398.805511 1214.917725,403.584473   C1220.300537,408.950836 1224.839478,415.052002 1228.897095,421.816528  z"
   id="path556" />
<path
   fill="#FCFCFC"
   opacity="1.000000"
   stroke="none"
   d=" M1200.209595,869.249390   C1197.121704,921.378540 1181.985474,969.603943 1158.270142,1015.281616   C1103.845215,1120.108521 1018.441772,1186.504883 904.525024,1214.994507   C807.942139,1239.149048 714.559937,1227.205322 626.859802,1179.807251   C530.813965,1127.898926 468.535248,1047.766846 438.020782,943.466064   C427.090149,906.104431 421.080414,867.413696 422.007172,828.131897   C422.515289,806.593689 426.398193,785.398682 430.549622,764.341309   C446.974579,681.028564 485.509644,609.740967 547.891174,551.826355   C582.142273,520.027832 621.894165,496.820038 664.494934,477.911560   C714.819214,455.574982 767.775574,449.933563 822.009521,450.208740   C874.693665,450.476044 925.309326,460.141113 972.862976,483.066376   C1089.436401,539.265564 1163.466797,630.026794 1192.588379,756.503540   C1201.088623,793.420227 1202.843872,831.005371 1200.209595,869.249390  z"
   id="path558" />
<path
   fill="#F7F7F7"
   opacity="1.000000"
   stroke="none"
   d=" M459.294800,531.301208   C408.271790,589.737488 374.272858,656.442200 357.529785,731.848816   C347.205292,778.347778 344.190552,825.391174 347.649963,872.880188   C350.443115,911.223694 359.580261,948.394287 368.337494,985.637695   C370.841248,996.286011 369.739105,998.811035 360.028351,1004.080811   C342.451843,1013.619141 334.479065,1010.767273 328.101837,991.773499   C317.797546,961.083374 311.346283,929.531555 307.709412,897.357910   C303.783173,862.624390 303.524841,827.847961 306.290070,793.066895   C309.762939,749.384521 319.243896,706.970520 334.330872,665.805603   C375.786469,552.693909 448.445557,465.177917 550.623413,401.824463   C562.509521,394.454742 574.600037,387.520752 587.814392,382.751923   C596.605774,379.579315 600.676514,380.953430 605.147949,389.025421   C607.479309,393.234009 609.631165,397.559174 611.586121,401.955292   C614.994873,409.620483 613.954285,413.444427 606.621948,417.836853   C598.787842,422.529846 590.609558,426.644867 582.627869,431.095428   C535.765991,457.225616 494.923035,490.776215 459.294800,531.301208  z"
   id="path560" />
<path
   fill="#F5F5F5"
   opacity="1.000000"
   stroke="none"
   d=" M1090.299561,412.731201   C1143.753906,447.752655 1189.175293,491.100067 1225.701904,542.739990   C1269.478271,604.629822 1299.842773,672.858276 1312.124146,748.339539   C1321.452637,805.671692 1321.450195,863.114929 1313.823486,920.586792   C1310.022827,949.226257 1301.581421,976.734619 1291.912476,1003.869446   C1289.825317,1009.727173 1287.664185,1010.706665 1281.631470,1009.090698   C1273.779663,1006.987549 1265.721802,1005.447144 1258.609985,1001.199890   C1253.369507,998.070129 1251.947876,994.884216 1254.160889,989.579102   C1272.302002,946.093872 1277.937378,900.400757 1277.839722,853.792786   C1277.764160,817.793030 1276.204468,781.806152 1271.390503,746.110962   C1265.429321,701.909485 1249.928955,660.804993 1228.148804,622.073547   C1197.022095,566.720947 1158.299805,517.507263 1109.287842,476.730133   C1084.869873,456.414856 1057.838013,440.071167 1030.348511,424.407593   C1013.973389,415.077057 1011.685852,407.020294 1020.821960,390.581421   C1026.292725,380.737671 1031.146851,379.144409 1041.209595,384.372040   C1057.884399,393.034790 1074.345581,402.086060 1090.299561,412.731201  z"
   id="path562" />
<path
   fill="#8E8D8A"
   opacity="1.000000"
   stroke="none"
   d=" M1363.691406,634.248962   C1376.629395,656.823730 1382.955566,681.686951 1387.986450,707.021667   C1393.170410,733.126770 1397.729004,759.327576 1400.677490,785.778870   C1403.413452,810.321777 1404.225586,835.002258 1402.763306,859.620239   C1400.036011,905.538879 1393.608398,950.992126 1379.804443,994.985535   C1361.169800,1054.374146 1338.743042,1112.135620 1303.017578,1163.846191   C1257.794678,1229.303345 1203.934570,1286.144653 1137.674561,1330.711548   C1120.252075,1342.430176 1102.012573,1352.799072 1083.442383,1362.572144   C1078.440552,1365.204712 1073.089722,1367.096924 1067.049316,1367.705322   C1069.333740,1362.858887 1073.275635,1359.614990 1078.115601,1357.488281   C1106.855713,1344.860229 1132.454834,1327.071045 1157.135864,1308.091919   C1252.734131,1234.579590 1320.716553,1140.751221 1361.609985,1027.359375   C1372.589722,996.913696 1378.546509,965.124939 1384.949707,933.501465   C1389.772461,909.682922 1393.703125,885.726013 1395.420288,861.433167   C1396.904907,840.429871 1396.333862,819.462708 1394.750854,798.524353   C1392.591675,769.965454 1388.875977,741.599487 1383.026489,713.535767   C1378.201538,690.388245 1372.078247,667.596985 1364.502197,645.197632   C1363.323486,641.712708 1362.152100,638.233276 1363.691406,634.248962  z"
   id="path564" />
<path
   fill="#C3C0B8"
   opacity="1.000000"
   stroke="none"
   d=" M529.133240,1233.751709   C523.842957,1237.503540 518.967590,1241.263550 513.911621,1244.762451   C488.355408,1262.448364 451.730133,1245.727661 448.406128,1214.757812   C447.375732,1205.157349 450.056091,1196.195557 455.527100,1188.295044   C461.266968,1180.006348 468.256042,1172.946777 477.313232,1168.125977   C485.126831,1163.966919 486.184601,1160.874634 482.925720,1152.753540   C481.378265,1148.897339 479.779541,1145.060425 478.127930,1141.247559   C472.344666,1127.896484 465.414185,1124.231201 451.211548,1127.269043   C438.142883,1130.064331 428.826508,1137.832153 422.740997,1149.574951   C419.780945,1155.286621 420.064941,1161.121094 422.646423,1166.908813   C425.302612,1172.863892 428.990845,1178.216431 432.478210,1183.686035   C434.564728,1186.958740 436.150116,1190.380249 436.003754,1194.414551   C435.931641,1196.402222 435.496887,1197.070923 433.357727,1196.176636   C403.673126,1183.768799 395.330170,1155.422607 413.682434,1132.549072   C427.367065,1115.493286 447.965088,1108.160767 466.864441,1113.816284   C478.857849,1117.405029 487.244629,1125.353149 493.806030,1135.614258   C495.165039,1137.739746 495.117981,1139.892822 494.575714,1142.302979   C492.318542,1152.334961 494.925995,1157.267456 504.414642,1161.130005   C507.644531,1162.444702 510.952484,1163.569336 514.233093,1164.757690   C534.352112,1172.045654 543.606018,1188.172974 539.569153,1209.220093   C538.664001,1213.939331 537.236328,1218.558228 536.014099,1223.609863   C533.719055,1227.150879 531.617249,1230.412231 529.133240,1233.751709  z"
   id="path566" />
<path
   fill="#C0BDB6"
   opacity="1.000000"
   stroke="none"
   d=" M694.707520,1267.601074   C703.959045,1265.724976 711.833679,1268.771729 719.504822,1272.511230   C723.265381,1274.344604 724.101440,1277.765381 722.771057,1281.430176   C721.487183,1284.967041 718.190430,1284.344116 715.487183,1283.774536   C711.284241,1282.889282 707.139038,1281.761719 703.179810,1279.918335   C697.077209,1277.077148 693.795288,1278.260620 690.418579,1284.116577   C689.591980,1285.550049 688.864990,1287.059448 688.263123,1288.600586   C685.580566,1295.469849 686.748352,1298.510620 693.207275,1302.041992   C698.443420,1304.904907 703.646851,1307.828125 708.844849,1310.760010   C710.110901,1311.474121 711.554749,1311.996338 712.478638,1313.620728   C706.086243,1315.762939 699.437073,1315.699219 693.017395,1316.892090   C678.650391,1319.561523 677.690186,1329.633911 680.317871,1340.130371   C681.149841,1343.453735 684.876038,1344.730835 688.006104,1345.953857   C694.150269,1348.354492 700.989136,1348.725952 707.304565,1352.631592   C701.066895,1356.636841 694.595398,1357.770996 687.815857,1356.709839   C679.906677,1355.471802 672.611938,1352.152100 665.216797,1349.234253   C663.338196,1348.493042 662.404785,1347.497437 662.523071,1345.152222   C663.197388,1331.787598 666.143188,1318.970459 670.724182,1306.416138   C672.819580,1300.673584 674.078674,1294.639893 674.212341,1288.402466   C674.318298,1283.456543 672.637207,1279.743408 668.481812,1277.003174   C663.901733,1273.982788 659.447388,1270.771484 654.942017,1267.638062   C642.788086,1259.184570 632.323486,1259.633057 620.315918,1272.932861   C613.015259,1281.019165 611.663452,1291.422607 611.080200,1301.805298   C610.839905,1306.082031 610.551392,1310.425415 611.914368,1314.688965   C613.778015,1320.518677 617.276123,1323.489868 623.395569,1324.034790   C630.022766,1324.624878 636.663757,1323.434448 643.335327,1324.665649   C647.974609,1325.521606 648.815430,1327.929810 647.622375,1331.687500   C646.219055,1336.107666 644.177856,1340.082275 638.614380,1340.304932   C626.555298,1340.787842 615.473816,1338.063354 606.275269,1329.896240   C593.835632,1318.851440 592.268372,1304.842529 596.209778,1289.712891   C599.950806,1275.351807 607.986450,1263.864380 620.199890,1255.268921   C629.743530,1248.552368 639.615479,1247.356323 650.232849,1252.441040   C656.402100,1255.395508 661.957092,1259.335693 667.743469,1262.907959   C675.960449,1267.980469 684.593018,1270.776978 694.707520,1267.601074  z"
   id="path568" />
<path
   fill="#C2BFB8"
   opacity="1.000000"
   stroke="none"
   d=" M921.569214,1353.212036   C910.942322,1333.285034 905.380310,1312.116699 901.141174,1290.535400   C900.557312,1287.562866 899.561279,1284.776367 898.506836,1281.984741   C897.224854,1278.590820 898.425537,1276.217163 901.345337,1274.391846   C908.486511,1269.927856 915.636169,1270.594849 921.834106,1276.531616   C932.292297,1286.549072 942.693787,1296.625732 953.084961,1306.712769   C954.942505,1308.515869 957.310730,1309.853027 958.122559,1312.653931   C958.445984,1313.769775 959.232971,1315.475098 960.956055,1314.509766   C962.497070,1313.646606 963.266602,1312.242920 962.353271,1310.297363   C957.141418,1299.195312 956.479858,1286.981201 953.998657,1275.223389   C952.878784,1269.916748 954.974731,1265.122192 958.296814,1260.843872   C960.181641,1258.416504 961.133179,1258.288940 962.529724,1261.327637   C970.116699,1277.835083 976.381165,1294.775146 979.969238,1312.631958   C981.642212,1320.957764 982.975525,1329.336914 983.049438,1337.850708   C983.112854,1345.149292 979.191956,1347.714355 972.338745,1345.045410   C969.177368,1343.814331 966.591980,1341.738403 964.093994,1339.530884   C952.273071,1329.084106 940.458923,1318.629517 928.241394,1307.822998   C925.615540,1316.328857 927.419800,1324.285156 928.512329,1332.245361   C929.488892,1339.360596 930.303589,1346.471558 927.143066,1353.665771   C925.063904,1355.456787 923.388550,1355.131470 921.569214,1353.212036  z"
   id="path570" />
<path
   fill="#C1BEB7"
   opacity="1.000000"
   stroke="none"
   d=" M830.901733,1286.890381   C846.971680,1274.146729 862.416870,1272.597656 878.892700,1281.588501   C888.543030,1286.854492 894.661194,1294.619873 897.049377,1305.360596   C900.060181,1318.901367 900.890320,1332.424927 896.005859,1345.698853   C890.382507,1360.980835 878.613342,1368.774170 863.087280,1371.309937   C848.892395,1373.628296 837.704712,1367.926880 828.860901,1357.167358   C811.243164,1335.733154 812.056274,1305.855103 830.901733,1286.890381  z"
   id="path572" />
<path
   fill="#BFBCB5"
   opacity="1.000000"
   stroke="none"
   d=" M539.102661,1224.316162   C543.177063,1221.312988 545.431213,1217.124268 548.557983,1213.683472   C552.852295,1208.958008 557.818359,1207.360107 564.242981,1208.692993   C569.408081,1209.764648 571.083679,1212.467773 571.040588,1217.332764   C570.878235,1235.659058 570.855957,1253.986694 570.783203,1272.313843   C570.776062,1274.120239 570.782227,1275.926636 570.782227,1278.248413   C574.890076,1276.604126 576.619629,1273.299072 578.420105,1270.364502   C582.147827,1264.288696 585.356995,1257.897095 588.991699,1251.761108   C593.076477,1244.865356 598.010010,1238.733765 605.932556,1234.832764   C606.299988,1242.785400 604.525208,1249.750977 601.574219,1256.457031   C598.689636,1263.012207 594.835571,1269.043213 591.135620,1275.150879   C586.834839,1282.250610 582.545715,1289.348267 578.980652,1296.867188   C576.473938,1302.154053 572.631348,1306.179565 566.959656,1308.164062   C560.663269,1310.366943 555.388245,1307.687134 555.130127,1301.028198   C554.500305,1284.780762 552.969788,1268.427612 556.699646,1252.326050   C558.076843,1246.380615 557.768494,1240.567505 556.784058,1234.129761   C550.643372,1238.674194 546.148376,1244.135010 542.157776,1250.046997   C537.046204,1257.619995 532.039429,1265.263672 526.931946,1272.839355   C525.126953,1275.516724 523.079346,1278.362793 519.299500,1276.408813   C515.309021,1274.345947 516.338379,1270.670044 517.685364,1267.670166   C521.896423,1258.291260 526.435852,1249.059814 530.953613,1239.434082   C533.892456,1234.337402 536.921082,1229.679932 539.102661,1224.316162  z"
   id="path574" />
<path
   fill="#C4C1BA"
   opacity="1.000000"
   stroke="none"
   d=" M1092.937988,1222.001221   C1097.465210,1234.015137 1104.985718,1242.916138 1115.902100,1249.106201   C1121.215332,1252.119141 1125.793701,1256.048218 1125.432983,1263.163818   C1125.265747,1266.462036 1124.671875,1267.974121 1120.755127,1266.237915   C1111.341064,1262.064697 1101.724731,1258.344238 1092.161499,1254.512451   C1089.083008,1253.278931 1085.988770,1252.030762 1082.572754,1251.962891   C1079.925659,1251.910278 1077.510620,1252.409180 1076.128174,1254.883545   C1074.807007,1257.248291 1075.859131,1259.442139 1077.212891,1261.405029   C1083.180420,1270.059204 1087.624634,1279.578369 1092.791138,1288.686523   C1093.270630,1289.531982 1093.629639,1290.445923 1094.055542,1291.351318   C1084.039062,1294.793091 1079.492310,1293.453247 1073.834961,1285.207886   C1062.536011,1268.740234 1051.312378,1252.221069 1040.094849,1235.697876   C1038.884399,1233.915039 1037.789551,1232.027588 1036.863770,1230.082642   C1033.564087,1223.150513 1034.691650,1218.822754 1041.260132,1214.891113   C1047.954224,1210.883911 1054.525635,1206.604858 1061.902222,1203.845825   C1075.174561,1198.881714 1083.477051,1202.112549 1089.793457,1214.800659   C1090.903442,1217.030396 1091.816406,1219.358154 1092.937988,1222.001221  z"
   id="path576" />
<path
   fill="#C3C0B8"
   opacity="1.000000"
   stroke="none"
   d=" M1147.138428,1144.871338   C1167.379639,1150.560059 1186.408691,1158.481079 1205.787842,1165.405151   C1208.197632,1166.266113 1210.279297,1167.444946 1211.240479,1170.091675   C1212.831909,1174.472778 1210.720581,1177.951904 1206.101318,1177.954468   C1202.117920,1177.956665 1198.135620,1177.547852 1194.150391,1177.378052   C1191.492554,1177.264893 1188.818481,1177.062256 1186.172241,1177.228516   C1175.473633,1177.900757 1170.965698,1182.312988 1170.005981,1193.014648   C1169.172363,1202.309814 1169.332520,1211.635498 1169.283447,1220.954956   C1169.275513,1222.441284 1170.125488,1224.385742 1167.819702,1225.190796   C1165.925171,1225.852051 1164.141357,1225.589722 1162.643555,1224.380615   C1161.496094,1223.454224 1160.515503,1222.276611 1159.617798,1221.091797   C1144.223267,1200.770996 1130.404907,1179.465088 1119.410889,1156.410278   C1118.269897,1154.017456 1117.137817,1151.574341 1116.416260,1149.036743   C1114.773804,1143.261230 1117.342041,1139.834717 1123.361084,1140.023560   C1131.395874,1140.275635 1139.041016,1142.727173 1147.138428,1144.871338  z"
   id="path578" />
<path
   fill="#C6C4BC"
   opacity="1.000000"
   stroke="none"
   d=" M992.141602,1288.766113   C991.103882,1275.503662 990.677551,1262.688110 991.069397,1249.848511   C991.327820,1241.380615 994.419983,1238.773071 1002.744507,1240.216675   C1006.262878,1240.826904 1009.399048,1242.372681 1012.018066,1244.815918   C1027.855957,1259.590576 1044.011475,1274.057983 1057.805542,1290.855347   C1061.117798,1294.888794 1064.044800,1299.238770 1067.453735,1303.855957   C1064.708496,1304.311157 1062.885010,1304.223633 1060.361084,1303.671631   C1050.204468,1301.450317 1040.111694,1297.675171 1029.429443,1299.229492   C1022.386047,1300.254395 1017.300781,1304.256226 1013.813721,1310.469238   C1011.173706,1315.173218 1009.844727,1320.313354 1008.289429,1325.396118   C1007.659485,1327.454712 1006.984253,1329.516479 1006.110901,1331.479492   C1004.923218,1334.149170 1002.361328,1334.890869 999.864075,1334.593506   C997.451355,1334.306274 997.261475,1331.901733 997.021484,1329.893311   C995.401733,1316.338501 993.788940,1302.782959 992.141602,1288.766113  z"
   id="path580" />
<path
   fill="#BFBCB5"
   opacity="1.000000"
   stroke="none"
   d=" M898.381104,398.726318   C894.243042,397.294434 894.588379,393.851868 894.631653,391.047394   C895.020142,365.885681 899.899414,341.489929 908.013672,317.750610   C910.866028,309.405548 916.649536,306.728851 925.399536,308.653229   C933.913269,310.525726 942.030579,313.439728 949.174133,318.540405   C962.206360,327.845734 964.376770,350.248291 953.497375,362.128845   C948.391235,367.704956 941.402405,368.698822 934.512024,369.921417   C930.256653,370.676422 925.928955,371.134583 921.750244,372.188293   C912.025574,374.640442 907.615967,380.298492 907.125488,390.389465   C906.800781,397.070282 905.878296,397.998779 898.381104,398.726318  z"
   id="path582" />
<path
   fill="#BEBBB5"
   opacity="1.000000"
   stroke="none"
   d=" M816.509155,357.342926   C803.478577,361.113403 799.837708,366.521973 801.098511,379.797180   C801.723999,386.382935 800.140503,388.632141 794.617737,389.002991   C787.791687,389.461365 785.275513,387.302795 785.243774,380.626495   C785.140076,358.816589 785.062866,337.006226 785.077087,315.196106   C785.083740,304.945251 789.264404,301.171204 799.354553,302.418335   C805.509033,303.179016 811.655518,302.946930 817.807190,302.972015   C832.410522,303.031616 841.408569,311.656830 842.008301,326.291656   C842.703857,343.264282 833.680237,354.373474 816.509155,357.342926  z"
   id="path584" />
<path
   fill="#C3C0B8"
   opacity="1.000000"
   stroke="none"
   d=" M763.777954,1366.045410   C753.460327,1369.777222 743.406067,1369.160767 733.616455,1365.972046   C726.385864,1363.616943 723.532471,1357.382202 722.149963,1349.720459   C731.214966,1350.636963 739.955566,1351.454590 748.677612,1352.436768   C751.938965,1352.804077 755.022949,1352.516846 757.820801,1350.819458   C763.705139,1347.249878 764.127625,1342.258545 759.225952,1337.466675   C750.896606,1329.324219 742.594604,1321.151733 734.406555,1312.867798   C728.702332,1307.096802 727.823242,1299.763550 731.681274,1292.775269   C743.352600,1271.634399 759.130554,1269.437866 776.054077,1286.613281   C777.440063,1288.019897 778.725159,1289.525757 780.286133,1291.236450   C778.052185,1293.225342 775.538147,1293.140381 773.185852,1293.209595   C767.868713,1293.366089 762.544495,1293.406616 757.225464,1293.331665   C754.052856,1293.286987 750.643555,1292.560669 749.164551,1296.456909   C747.586853,1300.612915 747.749817,1304.668213 751.002258,1308.072754   C752.136597,1309.260254 753.574280,1310.166016 754.907776,1311.154053   C762.711426,1316.936768 769.434875,1323.852539 775.649048,1331.254150   C780.673279,1337.238403 781.307678,1343.651367 777.257996,1350.613525   C773.800781,1356.557007 770.425903,1362.443970 763.777954,1366.045410  z"
   id="path586" />
<path
   fill="#C2BFB8"
   opacity="1.000000"
   stroke="none"
   d=" M690.610352,384.407379   C685.030945,367.075317 680.547302,349.919586 679.457153,332.030365   C679.212158,328.010590 678.815247,324.151978 684.155640,323.231781   C688.399780,322.500519 691.006104,324.567963 692.701782,329.605164   C697.094238,342.653442 700.228882,355.953766 702.164978,369.613953   C704.655945,387.189423 716.487549,395.349426 734.665161,392.743622   C735.814270,392.578918 736.961609,392.188721 738.101135,392.219666   C739.849121,392.267181 741.714539,393.238037 742.272095,394.557312   C743.000549,396.281311 740.691589,396.755920 739.579346,397.493805   C728.581848,404.790161 716.254211,407.602325 703.249512,408.186768   C699.528870,408.353973 697.829590,406.369324 696.809326,403.220245   C694.815308,397.065247 692.779724,390.923676 690.610352,384.407379  z"
   id="path588" />
<path
   fill="#C0BDB6"
   opacity="1.000000"
   stroke="none"
   d=" M805.003174,1361.966675   C804.680298,1363.687622 804.371887,1364.981812 804.137695,1366.289062   C803.660400,1368.954346 803.218079,1371.863647 800.098389,1372.530640   C797.193604,1373.151733 795.116028,1371.087891 793.277039,1369.144897   C790.247803,1365.944458 789.224121,1361.820312 789.118896,1357.664795   C788.513000,1333.737915 787.364807,1309.751465 794.678284,1286.430176   C795.595642,1283.505127 795.392578,1279.674072 799.934387,1279.887817   C804.077332,1280.082397 804.753235,1283.397949 805.237671,1286.597290   C808.540283,1308.406372 809.250671,1330.273804 806.533691,1352.201172   C806.146118,1355.329346 805.550598,1358.431519 805.003174,1361.966675  z"
   id="path590" />
<path
   fill="#BEBBB5"
   opacity="1.000000"
   stroke="none"
   d=" M1100.627197,1202.381836   C1094.965820,1196.516846 1091.044556,1190.059082 1089.248657,1182.416504   C1088.994263,1181.334106 1088.324219,1179.949829 1089.316284,1179.127930   C1090.265991,1178.341064 1091.485962,1179.147217 1092.539673,1179.585571   C1100.319946,1182.822632 1106.943726,1187.808838 1113.152344,1193.373657   C1126.639526,1205.462158 1138.063843,1219.180420 1145.950073,1235.616455   C1147.584106,1239.021851 1149.029053,1242.531372 1149.611328,1247.084595   C1128.743408,1236.749390 1115.096558,1219.372314 1100.627197,1202.381836  z"
   id="path592" />
<path
   fill="#BEBBB5"
   opacity="1.000000"
   stroke="none"
   d=" M873.918579,383.321045   C873.877014,384.701416 874.046021,385.793488 873.674866,386.652069   C872.335449,389.750793 871.329773,393.617554 867.029114,393.464691   C861.400269,393.264557 857.221436,390.101288 856.883179,386.502716   C856.463806,382.041412 859.539307,377.164673 863.624451,376.069031   C868.285156,374.819061 871.191040,377.165894 873.208191,381.072113   C873.507324,381.651367 873.660583,382.305939 873.918579,383.321045  z"
   id="path594" />
<path
   fill="#BEBBB5"
   opacity="1.000000"
   stroke="none"
   d=" M761.424316,394.511719   C758.226562,394.623566 755.243530,394.689148 753.619080,391.827118   C752.236694,389.391327 750.782959,386.702118 753.425842,384.115814   C755.686890,381.903168 763.463440,381.304871 765.725952,383.307373   C768.444214,385.713165 766.902283,388.449829 765.844666,391.019684   C765.105164,392.816559 763.660522,393.890839 761.424316,394.511719  z"
   id="path596" />
<path
   fill="#252525"
   opacity="1.000000"
   stroke="none"
   d=" M539.027893,1224.165283   C538.140076,1229.781128 536.126343,1234.953979 531.375366,1238.967773   C530.504089,1237.494873 529.948914,1235.892700 529.097717,1234.077393   C530.464661,1230.297729 531.324951,1226.188110 535.657104,1224.103516   C536.851562,1224.028320 537.724121,1224.060059 539.027893,1224.165283  z"
   id="path598" />
<path
   fill="#8C8B88"
   opacity="1.000000"
   stroke="none"
   d=" M921.295837,1353.290161   C922.936584,1353.234863 924.549561,1353.585327 926.524658,1353.941406   C926.773010,1354.588013 926.523438,1355.239136 926.571655,1355.867554   C926.704895,1357.604614 926.749329,1359.405884 924.549194,1359.653931   C922.152893,1359.924072 921.651611,1357.945190 921.288452,1356.139893   C921.130676,1355.355591 921.265930,1354.512329 921.295837,1353.290161  z"
   id="path600" />
<path
   fill="#121212"
   opacity="1.000000"
   stroke="none"
   d=" M988.197021,700.073486   C999.345764,695.432800 1010.403015,696.506226 1021.498169,698.360779   C1024.433105,698.851318 1024.946289,700.581726 1023.837463,703.050964   C1022.204224,706.688049 1020.362244,710.238892 1018.883179,713.936096   C1016.277039,720.450745 1017.559082,723.273071 1024.264160,725.007202   C1030.373413,726.587341 1036.623535,727.616699 1042.797119,728.955322   C1045.064331,729.446899 1047.326172,730.019470 1049.529175,730.741882   C1063.027466,735.167908 1066.070557,742.216980 1060.066650,755.133972   C1056.951660,761.836060 1052.891724,767.793030 1047.277466,772.774597   C1043.948120,775.728577 1039.279541,778.808838 1041.923218,784.393005   C1044.448242,789.726685 1049.572388,788.597290 1054.224121,788.328491   C1061.030640,787.935120 1067.841187,787.570435 1074.655273,787.370911   C1079.114136,787.240356 1081.447144,790.278809 1080.650879,795.099182   C1079.711426,800.786194 1075.567993,803.452881 1070.575562,805.023499   C1060.500854,808.192993 1050.084961,809.448120 1039.591919,809.897339   C1019.429321,810.760681 999.285400,809.046814 979.121582,809.222107   C974.039795,809.266296 972.632385,807.071228 974.101257,802.152832   C975.657593,796.941711 979.118774,793.221191 983.735229,790.523376   C989.189453,787.335938 994.633606,784.127563 1000.155090,781.059631   C1009.908020,775.640503 1010.197571,765.688599 1011.895874,756.492188   C1012.380432,753.868530 1010.119080,752.328369 1007.923889,751.310547   C1002.115417,748.617371 995.128601,750.162659 991.001282,755.943848   C974.378662,779.226868 957.260193,802.201721 943.749390,827.536743   C940.371826,833.870178 936.972717,840.155029 931.871765,845.308105   C919.195190,858.114258 903.783936,859.064819 887.351562,855.500977   C886.381042,855.290466 885.428467,854.997131 883.872498,854.584534   C888.911804,844.073242 893.987915,833.750916 899.755676,823.769043   C901.085999,821.466797 902.579224,819.228821 903.632324,816.802612   C905.472412,812.563599 904.210144,810.511719 899.659607,809.994812   C898.010132,809.807434 896.332031,809.827209 894.667053,809.828796   C873.836853,809.848389 853.006226,809.817261 832.176758,809.957153   C826.926697,809.992371 821.958984,808.560608 816.922729,807.586914   C812.621460,806.755432 811.481750,802.850342 813.997498,799.095276   C815.804138,796.398499 818.566650,794.765198 821.158020,792.959961   C827.437317,788.585449 833.828918,784.363281 839.975708,779.810242   C844.829285,776.215271 848.845154,771.722900 851.743347,766.374390   C853.663757,762.830200 855.728455,758.928284 852.698364,755.209106   C849.484436,751.264343 845.001831,749.508362 839.801697,750.336426   C831.738464,751.620178 826.550903,756.755310 822.392517,763.339722   C809.426514,783.870544 796.408691,804.368591 783.410461,824.879089   C779.937561,830.359070 776.556213,835.899841 772.970459,841.304932   C764.598999,853.923828 743.585327,861.386963 729.040466,857.011108   C723.442383,855.326904 723.017273,853.997375 725.705444,848.964661   C732.329895,836.562561 738.796631,824.076172 745.693176,810.924744   C743.057373,810.924744 741.286865,810.924744 739.516357,810.924744   C663.024658,810.924744 586.533020,810.925049 510.041321,810.924194   C503.995178,810.924072 504.019348,810.927979 505.887482,804.955811   C508.114685,797.835876 511.648987,791.483521 517.146362,786.393066   C525.293884,778.848633 534.663086,776.460083 545.260681,780.419739   C553.057495,783.332947 560.902161,785.993896 569.143677,787.408142   C582.281189,789.662476 593.872437,786.698059 603.865845,777.707336   C614.366943,768.259705 622.275513,756.683105 630.514099,745.390564   C645.326050,725.087830 658.508972,703.614990 674.161133,683.922119   C696.996155,655.192322 726.950684,639.554688 763.395813,635.827759   C776.717590,634.465515 790.035645,635.371521 803.347107,634.892029   C808.651978,634.700989 812.037109,637.392456 814.152405,642.154480   C820.301697,655.998413 817.983521,669.818359 807.198181,680.783447   C797.745850,690.393372 786.023743,694.898132 772.618835,695.057190   C765.135437,695.145996 760.064941,691.437012 756.981873,684.737305   C754.871155,680.150696 754.151611,675.197021 753.027649,670.348145   C750.967896,661.461914 747.673828,659.998108 739.581665,664.356873   C726.337952,671.490601 718.086060,682.957336 712.064758,696.279053   C707.072266,707.324707 702.697815,718.646790 696.317749,729.039917   C683.982727,749.133545 667.683228,765.272644 647.988403,778.090698   C646.454834,779.088745 644.789246,779.942505 643.439819,781.148499   C642.023987,782.413757 639.231873,783.368347 639.869446,785.407654   C640.405457,787.122314 643.224182,787.464478 645.108276,787.570068   C650.085205,787.849121 655.085266,787.726868 660.076172,787.743042   C689.070190,787.837280 718.070496,787.603210 747.055237,788.168640   C759.232666,788.406067 767.543701,783.744324 773.911316,773.589600   C786.018921,754.281006 799.284058,735.673096 810.820129,716.040588   C817.969360,703.873901 828.392883,699.082703 841.161560,696.992126   C846.600464,696.101685 852.063354,695.337524 857.505127,696.961243   C862.495239,698.450256 863.499756,700.851196 860.966614,705.460999   C859.274109,708.541016 857.813843,711.719910 857.091492,715.140869   C855.801575,721.249573 857.944214,724.645752 864.201172,725.139221   C871.541565,725.718140 878.674927,727.125366 885.780640,728.847107   C899.245300,732.109680 904.529541,742.320190 899.510010,755.414551   C897.387146,760.952515 893.720337,765.456604 889.717346,769.749207   C887.109863,772.545349 884.666260,775.503540 882.278809,778.492737   C880.533691,780.677612 878.999512,783.031006 877.148987,785.620300   C887.812256,788.405701 898.284302,787.335083 908.644165,787.995728   C920.268677,788.737183 927.623352,785.219727 933.827026,774.482483   C945.122192,754.933105 958.924377,736.862915 969.968384,717.073120   C974.117004,709.639160 980.020203,703.855042 988.197021,700.073486  z"
   id="path602" />
<path
   fill="#252525"
   opacity="1.000000"
   stroke="none"
   d=" M835.643433,917.322754   C834.679810,911.353516 834.671448,905.602417 831.388184,900.638367   C827.616455,894.935791 823.773804,894.631836 819.215332,899.823975   C817.611938,901.650146 817.016602,903.823425 816.794006,906.226501   C815.934021,915.509277 814.963867,924.781921 814.031494,934.057983   C813.493958,939.406555 811.471741,941.081299 805.734497,940.940491   C799.917419,940.797729 798.247986,939.206116 797.810730,933.694092   C797.192200,925.895691 796.518127,918.100952 795.770752,910.313904   C795.468445,907.163940 795.294067,903.874939 791.016785,903.212524   C784.237488,902.162598 778.859802,903.538086 777.250671,907.486023   C774.941284,913.152039 772.642517,918.812195 773.461792,925.301514   C774.209351,931.222900 771.888855,934.638428 766.268677,937.007690   C754.448914,941.990417 742.940125,940.864807 731.612183,935.185425   C729.147705,933.949890 728.941101,932.131531 728.916199,929.890198   C728.781067,917.739685 728.606079,905.589661 728.454529,893.439270   C728.422546,890.875610 729.196045,888.673096 732.019714,888.222717   C735.728027,887.631165 739.048950,888.433777 740.916748,892.126648   C742.480164,895.217651 742.185120,898.600159 742.219177,901.926941   C742.283752,908.226013 740.952576,914.632141 743.018555,920.784729   C744.354736,924.764160 745.188232,929.864990 750.560669,930.200317   C756.169678,930.550476 757.180603,925.285034 758.714966,921.467468   C760.991821,915.803040 760.733276,909.764404 760.245850,903.729126   C759.472839,894.158142 761.316589,892.648743 770.709167,892.857971   C780.225464,893.069885 789.344238,890.053528 798.644287,888.497559   C806.786255,887.135254 814.863403,886.743530 822.726135,889.928650   C823.951660,890.425049 825.518066,890.718933 826.270691,891.641602   C831.675720,898.268616 838.509888,897.177979 845.459106,895.392334   C852.372498,893.615784 859.138306,891.274719 866.481628,891.777161   C876.782898,892.482117 883.606140,898.048645 885.840454,908.063782   C886.859741,912.632629 887.473145,917.264648 886.681335,921.940674   C884.937988,932.235962 878.406799,938.801941 868.030945,940.793518   C856.356323,943.034363 845.831238,938.929443 840.081909,929.843018   C837.739075,926.140381 836.267944,922.102356 835.643433,917.322754  z"
   id="path604" />
<path
   fill="#252525"
   opacity="1.000000"
   stroke="none"
   d=" M898.793945,897.863159   C900.708435,895.073547 903.121094,893.549255 906.043823,893.273865   C913.997803,892.524231 921.941467,891.513916 929.963318,891.775574   C933.498962,891.890991 936.224243,893.151794 936.835388,896.948730   C937.424561,900.608582 936.352112,903.245300 932.005859,903.317627   C930.182434,903.347900 928.324097,903.313904 926.551575,903.663635   C925.347229,903.901306 923.552185,903.427917 923.035767,904.919617   C922.406921,906.735962 923.826538,908.043823 924.998962,909.200562   C927.414307,911.583801 930.652344,912.647949 933.514282,914.318420   C938.714661,917.353882 940.074219,920.686340 938.512634,926.455200   C936.455505,934.054443 929.460388,939.968567 921.629883,940.645508   C915.962708,941.135437 910.304382,941.356079 904.919067,938.974670   C902.444885,937.880554 900.175232,936.455322 898.741028,934.102783   C897.134644,931.467834 897.047607,928.606567 898.874390,926.123352   C900.683899,923.663818 903.161621,924.826416 905.171265,925.908569   C909.779236,928.389832 914.460571,927.593628 920.251465,926.505249   C913.989319,921.878113 908.463318,917.463867 902.605835,913.545166   C894.076660,907.839111 893.799011,907.326599 898.793945,897.863159  z"
   id="path606" />
<path
   fill="#1F1F1F"
   opacity="1.000000"
   stroke="none"
   d=" M679.798279,907.711304   C681.560791,902.450562 683.130188,897.520142 686.774719,893.643799   C693.467773,886.524963 699.756409,887.889526 703.300598,896.804565   C707.709473,907.894592 713.228699,918.565552 715.470337,930.436462   C715.562683,930.925232 715.750061,931.395874 715.846313,931.884216   C716.992371,937.700500 716.990112,937.612488 710.851746,937.608765   C700.864136,937.602722 690.875427,937.845337 680.889099,937.756531   C672.747192,937.684082 671.391418,935.887268 673.553528,928.072510   C675.410950,921.359192 677.623657,914.744202 679.798279,907.711304  z"
   id="path608" />
<path
   fill="#0F0F0F"
   opacity="1.000000"
   stroke="none"
   d=" M516.825928,1219.797607   C508.571716,1229.827148 498.815399,1236.811157 485.739563,1236.933838   C469.758453,1237.083984 458.731934,1219.503296 465.444397,1205.056030   C470.842865,1193.436890 478.745514,1183.976562 490.144226,1177.792969   C498.299255,1173.368896 506.500824,1173.559692 514.247253,1178.689819   C521.564880,1183.535645 527.405823,1189.510742 527.062988,1199.247192   C526.923889,1203.196899 525.535400,1206.725830 523.448364,1209.986328   C521.386475,1213.207764 519.172424,1216.331909 516.825928,1219.797607  z"
   id="path610" />
<path
   fill="#0F0F0F"
   opacity="1.000000"
   stroke="none"
   d=" M841.890015,1295.609497   C850.026245,1292.557251 858.078613,1291.966797 866.267883,1292.967041   C870.621826,1293.498657 874.395386,1295.539795 876.523621,1299.313477   C883.611572,1311.881348 886.785278,1325.294312 882.863220,1339.529663   C880.126953,1349.460938 871.733582,1355.327393 860.841675,1355.954102   C849.102539,1356.629761 841.028748,1352.200684 836.765259,1342.098389   C831.752930,1330.222168 831.594910,1317.827393 834.189697,1305.392578   C835.061340,1301.215820 837.612244,1297.855591 841.890015,1295.609497  z"
   id="path612" />
<path
   fill="#1F1F1F"
   opacity="1.000000"
   stroke="none"
   d=" M1063.341553,1218.167603   C1067.441162,1218.200317 1071.115845,1217.953247 1074.725098,1218.330688   C1080.537720,1218.938354 1083.065308,1222.808716 1081.616089,1228.492310   C1080.316528,1233.588501 1077.272339,1237.396484 1072.526611,1239.696289   C1067.184570,1242.284912 1061.917969,1241.070801 1058.379761,1236.324829   C1056.908325,1234.351318 1055.783936,1232.095337 1054.672363,1229.881958   C1051.139160,1222.846191 1052.683350,1219.772949 1060.410156,1218.327393   C1061.217529,1218.176392 1062.060669,1218.216553 1063.341553,1218.167603  z"
   id="path614" />
<path
   fill="#252525"
   opacity="1.000000"
   stroke="none"
   d=" M1138.123901,1161.802734   C1141.595947,1159.287720 1145.217163,1160.225098 1148.764038,1161.059082   C1152.154663,1161.856079 1155.488159,1162.901855 1158.835327,1163.876953   C1165.314575,1165.765137 1167.286865,1169.598145 1165.127319,1175.959229   C1163.957642,1179.404175 1161.898804,1182.112061 1158.728271,1183.935791   C1155.136719,1186.001953 1152.088501,1185.709351 1149.825684,1181.899292   C1145.924805,1175.331665 1141.410645,1169.127930 1138.123901,1161.802734  z"
   id="path616" />
<path
   fill="#252525"
   opacity="1.000000"
   stroke="none"
   d=" M1026.705444,1281.383057   C1026.524414,1290.006104 1023.054932,1292.762817 1014.061646,1291.868896   C1007.045227,1291.171509 1006.220764,1290.333008 1006.883362,1283.307617   C1007.233948,1279.591064 1006.381042,1276.050049 1006.082886,1272.427124   C1005.881409,1269.978271 1005.475769,1267.291626 1008.178772,1265.759888   C1010.757751,1264.298462 1013.375000,1264.813477 1015.756104,1266.221802   C1021.448914,1269.588867 1025.187256,1274.465332 1026.705444,1281.383057  z"
   id="path618" />
<path
   fill="#181817"
   opacity="1.000000"
   stroke="none"
   d=" M916.780273,338.186218   C916.995239,332.963806 917.225525,327.866943 922.421204,325.902374   C928.331726,323.667480 934.580872,323.762756 940.255798,326.929474   C943.504822,328.742523 944.140259,332.232605 943.754150,335.701599   C943.276245,339.995697 942.652954,344.283386 941.860474,348.530548   C940.450012,356.090179 936.047668,358.808289 926.984314,357.939789   C919.437927,357.216705 916.980469,354.519714 916.784119,346.647461   C916.717712,343.984955 916.770020,341.319550 916.780273,338.186218  z"
   id="path620" />
<path
   fill="#1F1F1F"
   opacity="1.000000"
   stroke="none"
   d=" M822.719421,341.656494   C817.142517,345.839813 810.766663,346.346191 804.592529,347.273621   C801.655151,347.714844 799.864746,345.867645 800.029480,342.753357   C800.322266,337.215607 799.138672,331.851318 798.363831,326.428864   C797.535217,320.629547 800.018799,316.812195 805.586914,314.982117   C806.688477,314.620026 807.808044,314.243591 808.948853,314.080261   C824.408752,311.866455 828.961548,317.381165 825.737000,334.534515   C825.283203,336.948578 824.824768,339.470825 822.719421,341.656494  z"
   id="path622" />
<path
   fill="#E3E3E3"
   opacity="1.000000"
   stroke="none"
   d=" M856.598633,928.742249   C851.143982,922.990601 850.664795,916.815125 853.671936,910.124023   C855.095520,906.956238 856.524414,903.786011 857.793457,900.555054   C859.028564,897.410522 860.900757,897.084473 863.600708,898.764648   C871.266174,903.535156 874.754822,912.497620 872.272949,921.220215   C869.845459,929.751648 865.497314,931.945435 856.598633,928.742249  z"
   id="path624" />
<path
   fill="#C6C4BC"
   opacity="1.000000"
   stroke="none"
   d=" M695.529541,918.429810   C693.265137,918.271484 690.984802,918.466675 690.686401,915.786621   C690.487915,914.004028 690.552612,912.136047 692.221680,910.882751   C693.919739,909.607727 695.691650,910.014771 697.277161,910.999878   C700.059631,912.728577 699.536255,915.320007 695.529541,918.429810  z"
   id="path626" />
</svg>
